<?xml version="1.0" encoding="UTF-8"?>
<svg width="512px" height="512px" viewBox="0 0 512 512" version="1.1" xmlns="http://www.w3.org/2000/svg" xmlns:xlink="http://www.w3.org/1999/xlink">
    <defs></defs>
    <g id="icon" stroke="none" stroke-width="1" fill="none" fill-rule="evenodd">
        <g transform="translate(31.000000, 34.000000)">
            <g id="logo">
                <circle id="o" fill="#01E6BF" cx="147.5" cy="147.5" r="147.5"></circle>
                <circle id="o" fill="#F8ED71" cx="148" cy="148" r="79"></circle>
                <path d="M101.229526,147.904679 C101.229526,155.69873 98.4366692,162.193772 93.0371451,167.760951 C87.4514306,173.32813 80.9347636,175.926147 73.1147632,175.926147 C65.2947629,175.926147 58.7780959,173.142558 53.1923813,167.760951 C47.6066668,162.193772 45,155.69873 45,147.904679 C45,140.110629 47.7928573,133.615587 53.1923813,128.048408 C58.7780959,122.481229 65.2947629,119.883212 73.1147632,119.883212 C80.9347636,119.883212 87.4514306,122.666801 93.0371451,128.048408 C98.4366692,133.615587 101.229526,140.110629 101.229526,147.904679 Z M181.134426,117.733897 C177.40505,135.854277 174.141845,151.651531 171.577899,164.893347 C168.780867,178.135164 165.750748,192.073918 162.021372,206.709609 C160.156683,213.911299 157.126565,220.880676 152.931016,227.61774 C148.735468,234.587117 143.607575,240.394931 138.01351,245.273495 C131.953273,250.616684 125.426864,254.565998 118.434283,257.586061 C111.441702,260.606125 104.216035,262 96.7572819,262 C89.9977869,262 84.6368081,261.303062 80.4412595,259.909187 C76.2457109,258.515312 72.9825064,256.889124 70.651646,254.79831 C68.3207857,252.707497 66.9222695,250.384372 65.9899253,248.061246 C65.0575812,245.73812 64.8244951,243.182682 64.8244951,240.627244 C64.8244951,236.445618 66.4560974,232.728617 69.4862158,229.243928 C72.5163343,225.991552 76.7118829,224.365364 81.8397757,224.365364 C85.8022383,224.365364 89.2985288,225.526927 92.0955612,227.385428 C94.8925936,229.476241 97.45654,232.031679 99.5543143,234.81943 C101.652089,237.607181 103.516777,240.859556 104.915293,244.344245 C106.546895,247.828933 107.712326,250.616684 108.64467,252.707497 C111.674788,249.222809 114.704907,244.344245 117.268853,237.374868 C120.065885,230.637804 122.629832,221.577614 124.960692,210.194298 L144.773005,117.036959 L123.32909,117.036959 L125.893036,105.653643 L147.103865,105.653643 L148.968554,97.2903907 C150.600156,90.3210137 153.397188,83.5839493 157.359651,77.0791975 C161.5552,70.3421331 166.450006,64.5343189 172.277157,59.4234424 C177.871222,54.312566 184.397631,50.1309398 191.623298,46.8785639 C198.848965,43.626188 206.307718,42 213.533385,42 C219.826708,42 225.187687,42.6969377 229.383236,43.8585005 C233.578784,45.0200634 236.841989,46.6462513 239.405935,48.969377 C241.503709,51.0601901 243.135312,53.1510032 243.83457,55.7064414 C244.533828,58.2618796 245,60.5850053 245,62.9081309 C245,64.5343189 244.766914,66.3928194 244.067656,68.25132 C243.368398,70.3421331 242.436054,71.968321 241.037537,73.594509 C239.405935,75.4530095 237.774333,76.8468849 235.909645,77.7761352 C234.044956,78.7053854 231.48101,79.4023231 227.984719,79.4023231 C224.022257,79.4023231 220.525966,78.4730729 217.728934,76.3822598 C214.931902,74.2914467 212.367955,71.7360084 210.503267,68.9482577 C208.405493,65.9281943 206.540804,62.6758184 205.142288,59.1911299 C203.743772,55.7064414 202.578342,52.9186906 201.412912,50.8278775 C198.382793,54.312566 195.585761,59.1911299 193.2549,65.9281943 C190.92404,72.4329461 188.360094,81.7254488 185.796147,93.1087645 L182.999115,105.653643 L210.736353,105.653643 L208.172407,117.036959 L181.134426,117.036959 L181.134426,117.733897 Z" fill="#000000" fill-rule="nonzero"></path>
            </g>
            <g id="Multicolor" transform="translate(142.000000, 137.000000)" fill-rule="nonzero">
                <g id="Group">
                    <path d="M167.8,216.5 L155,216.5 L142.2,216.5 C138.1,216.5 134.1,214.8 131.4,211.7 L106.8,192.5 L106.8,214.2 C106.8,214.2 106.8,250.3 154.9,250.3 C203,250.3 203,214.2 203,214.2 L203,192.5 L178.4,211.7 C175.8,214.8 171.8,216.5 167.8,216.5 Z" id="Shape" fill="#F7B4B4"></path>
                    <path d="M131.4,211.7 L106.8,192.5 L106.8,214.2 C106.8,214.2 106.8,250.3 154.9,250.3 L154.9,216.6 L142.1,216.6 C138.1,216.5 134.2,214.8 131.4,211.7 Z" id="Shape" fill="#FBC8C8"></path>
                    <path d="M236.8,116.5 C236.8,111.2 232,105.8 227.2,105.8 C222.4,105.8 222.4,111.1 222.4,111.1 L222.4,105.8 C222.3,62.5 217.5,33.6 155,33.6 C92.5,33.6 87.7,62.5 87.6,105.8 L87.6,144.3 L106.9,192.4 L131.5,211.6 C134.2,214.7 138.2,216.4 142.3,216.4 L155,216.4 L167.8,216.4 C171.9,216.4 175.9,214.7 178.6,211.6 L203.2,192.4 L218.7,153.8 C232.2,152.9 236.8,132.2 236.8,116.5 Z" id="Shape" fill="#FBC8C8"></path>
                    <path d="M87.6,105.8 L87.6,111.1 C87.6,111.1 87.6,105.8 82.8,105.8 C78,105.8 73.2,111.1 73.2,116.5 C73.2,132.2 77.8,152.8 91.5,153.8 L107,192.4 L131.6,211.6 C134.3,214.7 138.3,216.4 142.4,216.4 L155,216.4 L155,33.6 C92.5,33.6 87.7,62.5 87.6,105.8 Z" id="Shape" fill="#FBD7D7"></path>
                    <path d="M130.9,163.6 L179,163.6 C179,163.6 179,182.7 154.9,182.7 C130.9,182.6 130.9,163.6 130.9,163.6 Z" id="Shape" fill="#F79392"></path>
                    <polygon id="Shape" fill="#FFFFFF" points="212.7 216.5 203.1 211.7 155 250.3 106.8 211.7 97.2 216.5 155 308"></polygon>
                    <path d="M0.9,308 L20.2,255.1 C23.1,248.7 28.4,243.6 34.9,240.8 L97.2,216.7 L155,308 L0.9,308 Z" id="Shape" fill="#DA5A47"></path>
                    <path d="M309,308 L289.7,255.1 C286.8,248.7 281.5,243.6 275,240.8 L212.7,216.7 L155,308 L309,308 Z" id="Shape" fill="#DA5A47"></path>
                    <path d="M140.5,115.6 C140.5,110.3 136.2,106 130.9,106 C130.9,106.1 130.9,106.2 130.9,106.3 C130.9,111.6 126.6,115.9 121.3,115.9 C121.4,121.1 125.7,125.2 130.9,125.2 C136.2,125.2 140.5,121 140.5,115.6 Z" id="Shape" fill="#3E3E3F"></path>
                    <path d="M188.6,115.6 C188.6,110.3 184.3,106 179,106 C179,106.1 179,106.2 179,106.3 C179,111.6 174.7,115.9 169.4,115.9 C169.5,121.1 173.8,125.2 179,125.2 C184.3,125.2 188.6,121 188.6,115.6 Z" id="Shape" fill="#3E3E3F"></path>
                    <path d="M82.8,86.6 C82.8,97 87.6,143.7 87.6,149.1 C87.6,149.1 87.6,149.1 92.4,158.7 C92.4,158.7 92.4,158.7 97.2,158.7 C97.2,152 92.4,96.2 111.7,81.7 L82.8,86.6 Z" id="Shape" fill="#84462D"></path>
                    <path d="M227.2,86.6 C227.2,97 222.4,143.7 222.4,149.1 C222.4,149.1 222.4,149.1 217.6,158.7 C217.6,158.7 217.6,158.7 212.8,158.7 C212.8,152 217.6,96.2 198.3,81.7 L227.2,86.6 Z" id="Shape" fill="#84462D"></path>
                    <g transform="translate(116.000000, 148.000000)" fill="#84462D" id="Shape">
                        <path d="M0.4,15.6 L39,15.6 C39,-6.3 10.1,-2.6 0.4,15.6 Z"></path>
                        <path d="M39,15.6 L77.5,15.6 C67.8,-2.6 39,-6.3 39,15.6 Z"></path>
                    </g>
                    <polygon id="Shape" fill="#FACB1B" points="64.1 229.3 84.8 308 109.5 308 86.6 220.6"></polygon>
                    <polygon id="Shape" fill="#FACB1B" points="246.5 229.3 225.8 308 201.1 308 224 220.6"></polygon>
                    <path d="M48.5,236.1 L34.8,240.7 C28.3,243.5 23.1,248.6 20.1,255 L0.9,308 L58.2,308 L48.5,236.1 Z" id="Shape" fill="#FFFFFF"></path>
                    <path d="M260.9,236.1 L274.6,240.7 C281.1,243.5 286.3,248.6 289.3,255 L308.6,307.9 L251.3,307.9 L260.9,236.1 Z" id="Shape" fill="#FFFFFF"></path>
                    <g transform="translate(68.000000, 0.000000)" id="Shape">
                        <path d="M14.8,86.6 C14.8,86.6 10,14.4 87,14.4 C87,52.9 87,86.6 87,86.6 L14.8,86.6 Z" fill="#FACB1B"></path>
                        <path d="M159.2,86.6 C159.2,86.6 164,14.4 87,14.4 C87,52.9 87,86.6 87,86.6 L159.2,86.6 Z" fill="#F3B607"></path>
                        <path d="M101.4,38.5 L101.4,9.6 C101.4,4.3 97.1,0 91.8,0 L82.2,0 C76.9,0 72.6,4.3 72.6,9.6 L72.6,38.5 C72.9,47 63.3,75.6 38.9,77 C62.2,77 70.2,77 72.6,77 L73.5,77 L100.6,77 L101.5,77 C103.9,77 111.8,77 135.2,77 C110.6,75.6 101.1,46.9 101.4,38.5 Z" fill="#FBE158"></path>
                        <path d="M173.6,87.8 C173.6,90 172.1,91.9 170,92.5 C160.7,95 133,101.1 86.9,101.1 C40.8,101.1 13.2,95 3.8,92.5 C1.7,92 0.2,90 0.2,87.8 L0.2,86.6 C0.2,81.3 4.5,77 9.8,77 L163.8,77 C169.1,77 173.4,81.3 173.4,86.6 L173.4,87.8 L173.6,87.8 Z" fill="#F3B607"></path>
                        <path d="M10,77 C4.7,77 0.4,81.3 0.4,86.6 L0.4,87.8 C0.4,90 1.9,91.9 4,92.5 C13.3,95 41,101.1 87.1,101.1 L87.1,77 L10,77 Z" fill="#FACB1B"></path>
                    </g>
                </g>
            </g>
        </g>
    </g>
</svg>